<?xml version="1.0" encoding="UTF-8"?>
<!-- Generator: Adobe Illustrator 15.0.0, SVG Export Plug-In . SVG Version: 6.00 Build 0)  -->
<!DOCTYPE svg PUBLIC "-//W3C//DTD SVG 1.1//EN" "http://www.w3.org/Graphics/SVG/1.1/DTD/svg11.dtd">
<svg version="1.1" xmlns="http://www.w3.org/2000/svg" xmlns:xlink="http://www.w3.org/1999/xlink" x="0px" y="0px" width="595.275px" height="841.89px" viewBox="0 0 595.275 841.89" enable-background="new 0 0 595.275 841.89" xml:space="preserve">
<g id="Vetores" display="none">
	<path display="inline" fill="none" stroke="#0047ff" stroke-width="6.8031" stroke-linecap="round" stroke-linejoin="round" d="   M236.374,328.093c-1.185-3.471-4.477-5.97-8.35-5.97c-4.873,0-8.823,3.949-8.823,8.82v14.332c0,4.873,3.951,8.823,8.823,8.823   c4.871,0,8.82-3.95,8.82-8.823l-0.003-7.166h-7.649"/>
	
		<line display="inline" fill="none" stroke="#0047ff" stroke-width="6.8031" stroke-linecap="round" stroke-linejoin="round" x1="251.081" y1="340.195" x2="264.364" y2="340.195"/>
	<path display="inline" fill="none" stroke="#0047ff" stroke-width="6.8031" stroke-linecap="round" stroke-linejoin="round" d="   M249.366,353.177v-22.233c0-4.87,3.95-8.82,8.822-8.82c4.873,0,8.822,3.95,8.822,8.82v22.233"/>
	
		<line display="inline" fill="none" stroke="#0047ff" stroke-width="6.8031" stroke-linecap="round" stroke-linejoin="round" x1="339.736" y1="340.195" x2="353.018" y2="340.195"/>
	<path display="inline" fill="none" stroke="#0047ff" stroke-width="6.8031" stroke-linecap="round" stroke-linejoin="round" d="   M338.021,353.177v-22.233c0-4.87,3.951-8.82,8.822-8.82s8.822,3.95,8.822,8.82v22.233"/>
	<path display="inline" fill="none" stroke="#0047ff" stroke-width="6.8031" stroke-linecap="round" stroke-linejoin="round" d="   M325.428,345.276c0,4.873-3.948,8.823-8.817,8.823c-4.874,0-8.821-3.95-8.821-8.823v-14.332c0-4.871,3.947-8.82,8.821-8.82   c4.87,0,8.817,3.949,8.817,8.82V345.276z"/>
	<g display="inline">
		
			<path fill="none" stroke="#0047ff" stroke-width="6.8031" stroke-linecap="round" stroke-linejoin="round" stroke-miterlimit="10" d="    M296.654,353.177v-4.963c0-4.339-3.321-7.903-7.56-8.289c3.801-0.874,6.589-4.246,6.589-8.313c0-4.73-3.833-8.566-8.566-8.566    l-7.574,0.003v30.129"/>
	</g>
	<g display="inline">
		
			<line fill="none" stroke="#0047ff" stroke-width="5.1024" stroke-linecap="round" stroke-linejoin="round" x1="164.936" y1="377.294" x2="176.734" y2="377.294"/>
		
			<line fill="none" stroke="#0047ff" stroke-width="5.1024" stroke-linecap="round" stroke-linejoin="round" x1="164.467" y1="366.414" x2="164.467" y2="390.173"/>
		
			<line fill="none" stroke="#0047ff" stroke-width="5.1024" stroke-linecap="round" stroke-linejoin="round" x1="177.251" y1="366.414" x2="177.251" y2="390.173"/>
	</g>
	
		<polyline display="inline" fill="none" stroke="#0047ff" stroke-width="5.1024" stroke-linecap="round" stroke-linejoin="round" points="   335.473,366.414 335.473,390.173 346.887,390.173  "/>
	<path display="inline" fill="none" stroke="#0047ff" stroke-width="5.1024" stroke-linecap="round" stroke-linejoin="round" d="   M223.956,373.683c0.051-0.339,0.08-0.687,0.08-1.041c0-3.841-3.113-6.955-6.954-6.955s-6.954,3.114-6.954,6.955v11.302   c0,3.842,3.113,6.957,6.954,6.957s6.954-3.115,6.954-6.957c0-0.395-0.036-0.78-0.1-1.158"/>
	<path display="inline" fill="none" stroke="#0047ff" stroke-width="5.1024" stroke-linecap="round" stroke-linejoin="round" d="   M223.956,373.683c0.051-0.339,0.08-0.687,0.08-1.041c0-3.841-3.113-6.955-6.954-6.955s-6.954,3.114-6.954,6.955v11.302   c0,3.842,3.113,6.957,6.954,6.957s6.954-3.115,6.954-6.957c0-0.395-0.036-0.78-0.1-1.158"/>
	<path display="inline" fill="none" stroke="#0047ff" stroke-width="5.1024" stroke-linecap="round" stroke-linejoin="round" d="   M326.076,373.683c0.05-0.339,0.079-0.687,0.079-1.041c0-3.841-3.11-6.955-6.952-6.955s-6.955,3.114-6.955,6.955v11.302   c0,3.842,3.113,6.957,6.955,6.957s6.952-3.115,6.952-6.957c0-0.395-0.037-0.78-0.099-1.158"/>
	<path display="inline" fill="none" stroke="#0047ff" stroke-width="5.1024" stroke-linecap="round" stroke-linejoin="round" d="   M326.076,373.683c0.05-0.339,0.079-0.687,0.079-1.041c0-3.841-3.11-6.955-6.952-6.955s-6.955,3.114-6.955,6.955v11.302   c0,3.842,3.113,6.957,6.955,6.957s6.952-3.115,6.952-6.957c0-0.395-0.037-0.78-0.099-1.158"/>
	<path display="inline" fill="none" stroke="#0047ff" stroke-width="5.1024" stroke-linecap="round" stroke-linejoin="round" d="   M353.859,366.414v17.53c0,3.842,3.113,6.957,6.955,6.957c3.84,0,6.956-3.115,6.956-6.957v-17.53"/>
	
		<line display="inline" fill="none" stroke="#0047ff" stroke-width="5.1024" stroke-linecap="round" stroke-linejoin="round" x1="188.223" y1="379.773" x2="198.694" y2="379.773"/>
	<path display="inline" fill="none" stroke="#0047ff" stroke-width="5.1024" stroke-linecap="round" stroke-linejoin="round" d="   M186.87,390.173v-17.531c0-3.841,3.113-6.956,6.954-6.956s6.955,3.115,6.955,6.956v17.531"/>
	<g display="inline">
		
			<line fill="none" stroke="#0047ff" stroke-width="5.1024" stroke-linecap="round" stroke-linejoin="round" x1="255.084" y1="377.011" x2="263.972" y2="377.011"/>
		<path fill="none" stroke="#0047ff" stroke-width="5.1024" stroke-linecap="round" stroke-linejoin="round" d="M265.958,390.173    h-6.023c-2.924,0-5.296-2.373-5.296-5.299v-13.162c0-2.926,2.372-5.299,5.296-5.299h5.371"/>
	</g>
	<g display="inline">
		
			<line fill="none" stroke="#0047ff" stroke-width="5.1024" stroke-linecap="round" stroke-linejoin="round" x1="399.524" y1="377.011" x2="408.414" y2="377.011"/>
		<path fill="none" stroke="#0047ff" stroke-width="5.1024" stroke-linecap="round" stroke-linejoin="round" d="M410.4,390.173    h-6.023c-2.924,0-5.298-2.373-5.298-5.299v-13.162c0-2.926,2.374-5.299,5.298-5.299h5.371"/>
	</g>
	<g display="inline">
		
			<line fill="none" stroke="#0047ff" stroke-width="5.1024" stroke-linecap="round" stroke-linejoin="round" x1="233.809" y1="390.173" x2="233.809" y2="366.416"/>
		<path fill="none" stroke="#0047ff" stroke-width="5.1024" stroke-linecap="round" stroke-linejoin="round" d="M246.046,390.173    v-5.489c0-3.841-3.113-6.956-6.953-6.956h-3.799"/>
		
			<line fill="none" stroke="#0047ff" stroke-width="5.1024" stroke-linecap="round" stroke-linejoin="round" x1="245.485" y1="366.414" x2="238.053" y2="376.749"/>
	</g>
	<g display="inline">
		<path fill="none" stroke="#0047ff" stroke-width="5.1024" stroke-linecap="round" stroke-linejoin="round" d="M384.812,377.29    c3.21,0.385,5.662,3.091,5.662,6.406c0,3.578-2.9,6.478-6.478,6.478h-6.434v-23.757l3.877-0.012c3.295,0,5.968,2.675,5.968,5.972    C387.407,374.44,386.397,376.223,384.812,377.29"/>
	</g>
	<g display="inline">
		
			<path fill="none" stroke="#0047ff" stroke-width="5.1024" stroke-linecap="round" stroke-linejoin="round" stroke-miterlimit="10" d="    M287.838,390.173V386.2c0-3.373-2.602-6.108-5.875-6.48c2.937-0.733,5.11-3.388,5.11-6.552c0-3.73-3.023-6.754-6.755-6.754    l-5.765,0.003v23.757"/>
	</g>
</g>
<g id="New_lettering_P_x26_B">
	<g>
		<path fill="#0047ff" d="M128.313,166.771c1.988,0,3.602-1.612,3.602-3.602c0-1.997-1.613-3.607-3.602-3.607    c-1.99,0-3.606,1.611-3.606,3.607C124.707,165.159,126.323,166.771,128.313,166.771"/>
		<path fill="#0047ff" d="M298.214,166.771c1.991,0,3.604-1.612,3.604-3.602c0-1.997-1.612-3.607-3.604-3.607    s-3.609,1.611-3.609,3.607C294.604,165.159,296.223,166.771,298.214,166.771"/>
		<path fill="#0047ff" d="M319.453,166.771c1.989,0,3.604-1.612,3.604-3.602c0-1.997-1.614-3.607-3.604-3.607    c-1.998,0-3.608,1.611-3.608,3.607C315.845,165.159,317.455,166.771,319.453,166.771"/>
		<path fill="#0047ff" d="M340.687,166.771c1.99,0,3.606-1.612,3.606-3.602c0-1.997-1.616-3.607-3.606-3.607    s-3.608,1.611-3.608,3.607C337.078,165.159,338.696,166.771,340.687,166.771"/>
		<path fill="#0047ff" d="M361.924,166.771c1.991,0,3.61-1.612,3.61-3.602c0-1.997-1.619-3.607-3.61-3.607    c-1.99,0-3.607,1.611-3.607,3.607C358.316,165.159,359.934,166.771,361.924,166.771"/>
		<path fill="#0047ff" d="M383.161,166.771c1.989,0,3.612-1.612,3.612-3.602c0-1.997-1.623-3.607-3.612-3.607    c-1.991,0-3.605,1.611-3.605,3.607C379.556,165.159,381.17,166.771,383.161,166.771"/>
		<path fill="#0047ff" d="M404.397,166.771c1.991,0,3.605-1.612,3.605-3.602c0-1.997-1.614-3.607-3.605-3.607    c-1.989,0-3.604,1.611-3.604,3.607C400.793,165.159,402.408,166.771,404.397,166.771"/>
		<path fill="#0047ff" d="M425.636,166.771c1.996,0,3.61-1.612,3.61-3.602c0-1.997-1.614-3.607-3.61-3.607    c-1.989,0-3.606,1.611-3.606,3.607C422.029,165.159,423.646,166.771,425.636,166.771"/>
		<path fill="#0047ff" d="M446.872,166.771c1.993,0,3.605-1.612,3.605-3.602c0-1.997-1.612-3.607-3.605-3.607    c-1.988,0-3.604,1.611-3.604,3.607C443.268,165.159,444.884,166.771,446.872,166.771"/>
		<path fill="#0047ff" d="M149.553,166.771c1.988,0,3.604-1.612,3.604-3.602c0-1.997-1.616-3.607-3.604-3.607    c-1.991,0-3.607,1.611-3.607,3.607C145.945,165.159,147.562,166.771,149.553,166.771"/>
		<path fill="#0047ff" d="M170.786,166.771c1.992,0,3.603-1.612,3.603-3.602c0-1.997-1.61-3.607-3.603-3.607    c-1.99,0-3.605,1.611-3.605,3.607C167.181,165.159,168.796,166.771,170.786,166.771"/>
		<path fill="#0047ff" d="M192.024,166.771c1.993,0,3.604-1.612,3.604-3.602c0-1.997-1.611-3.607-3.604-3.607    c-1.991,0-3.606,1.611-3.606,3.607C188.418,165.159,190.033,166.771,192.024,166.771"/>
		<path fill="#0047ff" d="M213.259,166.771c1.995,0,3.609-1.612,3.609-3.602c0-1.997-1.614-3.607-3.609-3.607    c-1.989,0-3.603,1.611-3.603,3.607C209.656,165.159,211.27,166.771,213.259,166.771"/>
		<path fill="#0047ff" d="M234.498,166.771c1.99,0,3.604-1.612,3.604-3.602c0-1.997-1.614-3.607-3.604-3.607    s-3.605,1.611-3.605,3.607C230.893,165.159,232.508,166.771,234.498,166.771"/>
		<path fill="#0047ff" d="M255.735,166.771c1.99,0,3.604-1.612,3.604-3.602c0-1.997-1.614-3.607-3.604-3.607    c-1.989,0-3.603,1.611-3.603,3.607C252.133,165.159,253.746,166.771,255.735,166.771"/>
		<path fill="#0047ff" d="M276.972,166.771c1.989,0,3.603-1.612,3.603-3.602c0-1.997-1.613-3.607-3.603-3.607    c-1.99,0-3.603,1.611-3.603,3.607C273.369,165.159,274.981,166.771,276.972,166.771"/>
		<path fill="#0047ff" d="M138.934,188.01c1.987,0,3.601-1.614,3.601-3.604c0-1.993-1.613-3.604-3.601-3.604    c-1.991,0-3.607,1.612-3.607,3.604C135.326,186.396,136.942,188.01,138.934,188.01"/>
		<path fill="#0047ff" d="M308.833,188.01c1.99,0,3.606-1.614,3.606-3.604c0-1.993-1.616-3.604-3.606-3.604    c-1.991,0-3.61,1.612-3.61,3.604C305.223,186.396,306.842,188.01,308.833,188.01"/>
		<path fill="#0047ff" d="M330.068,188.01c1.99,0,3.606-1.614,3.606-3.604c0-1.993-1.616-3.604-3.606-3.604    c-1.994,0-3.604,1.612-3.604,3.604C326.465,186.396,328.074,188.01,330.068,188.01"/>
		<path fill="#0047ff" d="M351.305,188.01c1.99,0,3.606-1.614,3.606-3.604c0-1.993-1.616-3.604-3.606-3.604    s-3.603,1.612-3.603,3.604C347.702,186.396,349.314,188.01,351.305,188.01"/>
		<path fill="#0047ff" d="M372.542,188.01c1.992,0,3.611-1.614,3.611-3.604c0-1.993-1.619-3.604-3.611-3.604    c-1.991,0-3.606,1.612-3.606,3.604C368.936,186.396,370.551,188.01,372.542,188.01"/>
		<path fill="#0047ff" d="M393.777,188.01c1.992,0,3.611-1.614,3.611-3.604c0-1.993-1.619-3.604-3.611-3.604    c-1.99,0-3.603,1.612-3.603,3.604C390.175,186.396,391.787,188.01,393.777,188.01"/>
		<path fill="#0047ff" d="M415.019,188.01c1.99,0,3.603-1.614,3.603-3.604c0-1.993-1.612-3.604-3.603-3.604s-3.61,1.612-3.61,3.604    C411.408,186.396,413.028,188.01,415.019,188.01"/>
		<path fill="#0047ff" d="M436.252,188.01c2,0,3.614-1.614,3.614-3.604c0-1.993-1.614-3.604-3.614-3.604    c-1.986,0-3.604,1.612-3.604,3.604C432.647,186.396,434.266,188.01,436.252,188.01"/>
		<path fill="#0047ff" d="M160.17,188.01c1.991,0,3.608-1.614,3.608-3.604c0-1.993-1.617-3.604-3.608-3.604    c-1.994,0-3.607,1.612-3.607,3.604C156.562,186.396,158.176,188.01,160.17,188.01"/>
		<path fill="#0047ff" d="M181.405,188.01c1.993,0,3.604-1.614,3.604-3.604c0-1.993-1.61-3.604-3.604-3.604    c-1.991,0-3.605,1.612-3.605,3.604C177.8,186.396,179.414,188.01,181.405,188.01"/>
		<path fill="#0047ff" d="M202.642,188.01c1.993,0,3.606-1.614,3.606-3.604c0-1.993-1.613-3.604-3.606-3.604    c-1.992,0-3.604,1.612-3.604,3.604C199.038,186.396,200.649,188.01,202.642,188.01"/>
		<path fill="#0047ff" d="M223.879,188.01c1.993,0,3.605-1.614,3.605-3.604c0-1.993-1.612-3.604-3.605-3.604    c-1.991,0-3.605,1.612-3.605,3.604C220.273,186.396,221.888,188.01,223.879,188.01"/>
		<path fill="#0047ff" d="M245.117,188.01c1.991,0,3.604-1.614,3.604-3.604c0-1.993-1.613-3.604-3.604-3.604    c-1.99,0-3.605,1.612-3.605,3.604C241.512,186.396,243.127,188.01,245.117,188.01"/>
		<path fill="#0047ff" d="M266.353,188.01c1.991,0,3.607-1.614,3.607-3.604c0-1.993-1.616-3.604-3.607-3.604    s-3.603,1.612-3.603,3.604C262.75,186.396,264.361,188.01,266.353,188.01"/>
		<path fill="#0047ff" d="M287.591,188.01c1.991,0,3.604-1.614,3.604-3.604c0-1.993-1.612-3.604-3.604-3.604    c-1.99,0-3.606,1.612-3.606,3.604C283.984,186.396,285.601,188.01,287.591,188.01"/>
		<path fill="#0047ff" d="M128.313,209.245c1.988,0,3.602-1.609,3.602-3.604c0-1.992-1.613-3.606-3.602-3.606    c-1.99,0-3.606,1.614-3.606,3.606C124.707,207.636,126.323,209.245,128.313,209.245"/>
		<path fill="#0047ff" d="M298.214,209.245c1.991,0,3.604-1.609,3.604-3.604c0-1.992-1.612-3.606-3.604-3.606    s-3.609,1.614-3.609,3.606C294.604,207.636,296.223,209.245,298.214,209.245"/>
		<path fill="#0047ff" d="M319.453,209.245c1.989,0,3.604-1.609,3.604-3.604c0-1.992-1.614-3.606-3.604-3.606    c-1.998,0-3.608,1.614-3.608,3.606C315.845,207.636,317.455,209.245,319.453,209.245"/>
		<path fill="#0047ff" d="M340.687,209.245c1.99,0,3.606-1.609,3.606-3.604c0-1.992-1.616-3.606-3.606-3.606    s-3.608,1.614-3.608,3.606C337.078,207.636,338.696,209.245,340.687,209.245"/>
		<path fill="#0047ff" d="M361.924,209.245c1.991,0,3.61-1.609,3.61-3.604c0-1.992-1.619-3.606-3.61-3.606    c-1.99,0-3.607,1.614-3.607,3.606C358.316,207.636,359.934,209.245,361.924,209.245"/>
		<path fill="#0047ff" d="M383.161,209.245c1.989,0,3.612-1.609,3.612-3.604c0-1.992-1.623-3.606-3.612-3.606    c-1.991,0-3.605,1.614-3.605,3.606C379.556,207.636,381.17,209.245,383.161,209.245"/>
		<path fill="#0047ff" d="M404.397,209.245c1.991,0,3.605-1.609,3.605-3.604c0-1.992-1.614-3.606-3.605-3.606    c-1.989,0-3.604,1.614-3.604,3.606C400.793,207.636,402.408,209.245,404.397,209.245"/>
		<path fill="#0047ff" d="M425.636,209.245c1.996,0,3.61-1.609,3.61-3.604c0-1.992-1.614-3.606-3.61-3.606    c-1.989,0-3.606,1.614-3.606,3.606C422.029,207.636,423.646,209.245,425.636,209.245"/>
		<path fill="#0047ff" d="M446.872,209.245c1.993,0,3.605-1.609,3.605-3.604c0-1.992-1.612-3.606-3.605-3.606    c-1.988,0-3.604,1.614-3.604,3.606C443.268,207.636,444.884,209.245,446.872,209.245"/>
		<path fill="#0047ff" d="M149.553,209.245c1.988,0,3.604-1.609,3.604-3.604c0-1.992-1.616-3.606-3.604-3.606    c-1.991,0-3.607,1.614-3.607,3.606C145.945,207.636,147.562,209.245,149.553,209.245"/>
		<path fill="#0047ff" d="M170.786,209.245c1.992,0,3.603-1.609,3.603-3.604c0-1.992-1.61-3.606-3.603-3.606    c-1.99,0-3.605,1.614-3.605,3.606C167.181,207.636,168.796,209.245,170.786,209.245"/>
		<path fill="#0047ff" d="M192.024,209.245c1.993,0,3.604-1.609,3.604-3.604c0-1.992-1.611-3.606-3.604-3.606    c-1.991,0-3.606,1.614-3.606,3.606C188.418,207.636,190.033,209.245,192.024,209.245"/>
		<path fill="#0047ff" d="M213.259,209.245c1.995,0,3.609-1.609,3.609-3.604c0-1.992-1.614-3.606-3.609-3.606    c-1.989,0-3.603,1.614-3.603,3.606C209.656,207.636,211.27,209.245,213.259,209.245"/>
		<path fill="#0047ff" d="M234.498,209.245c1.99,0,3.604-1.609,3.604-3.604c0-1.992-1.614-3.606-3.604-3.606    s-3.605,1.614-3.605,3.606C230.893,207.636,232.508,209.245,234.498,209.245"/>
		<path fill="#0047ff" d="M255.735,209.245c1.99,0,3.604-1.609,3.604-3.604c0-1.992-1.614-3.606-3.604-3.606    c-1.989,0-3.603,1.614-3.603,3.606C252.133,207.636,253.746,209.245,255.735,209.245"/>
		<path fill="#0047ff" d="M276.972,209.245c1.989,0,3.603-1.609,3.603-3.604c0-1.992-1.613-3.606-3.603-3.606    c-1.99,0-3.603,1.614-3.603,3.606C273.369,207.636,274.981,209.245,276.972,209.245"/>
		<path fill="#0047ff" d="M138.934,230.485c1.987,0,3.601-1.613,3.601-3.604s-1.613-3.606-3.601-3.606    c-1.991,0-3.607,1.615-3.607,3.606S136.942,230.485,138.934,230.485"/>
		<path fill="#0047ff" d="M308.833,230.485c1.99,0,3.606-1.613,3.606-3.604s-1.616-3.606-3.606-3.606    c-1.991,0-3.61,1.615-3.61,3.606S306.842,230.485,308.833,230.485"/>
		<path fill="#0047ff" d="M330.068,230.485c1.99,0,3.606-1.613,3.606-3.604s-1.616-3.606-3.606-3.606    c-1.994,0-3.604,1.615-3.604,3.606S328.074,230.485,330.068,230.485"/>
		<path fill="#0047ff" d="M351.305,230.485c1.99,0,3.606-1.613,3.606-3.604s-1.616-3.606-3.606-3.606s-3.603,1.615-3.603,3.606    S349.314,230.485,351.305,230.485"/>
		<path fill="#0047ff" d="M372.542,230.485c1.992,0,3.611-1.613,3.611-3.604s-1.619-3.606-3.611-3.606    c-1.991,0-3.606,1.615-3.606,3.606S370.551,230.485,372.542,230.485"/>
		<path fill="#0047ff" d="M393.777,230.485c1.992,0,3.611-1.613,3.611-3.604s-1.619-3.606-3.611-3.606    c-1.99,0-3.603,1.615-3.603,3.606S391.787,230.485,393.777,230.485"/>
		<path fill="#0047ff" d="M415.019,230.485c1.99,0,3.603-1.613,3.603-3.604s-1.612-3.606-3.603-3.606s-3.61,1.615-3.61,3.606    S413.028,230.485,415.019,230.485"/>
		<path fill="#0047ff" d="M436.252,230.485c2,0,3.614-1.613,3.614-3.604s-1.614-3.606-3.614-3.606c-1.986,0-3.604,1.615-3.604,3.606    S434.266,230.485,436.252,230.485"/>
		<path fill="#0047ff" d="M160.17,230.485c1.991,0,3.608-1.613,3.608-3.604s-1.617-3.606-3.608-3.606    c-1.994,0-3.607,1.615-3.607,3.606S158.176,230.485,160.17,230.485"/>
		<path fill="#0047ff" d="M181.405,230.485c1.993,0,3.604-1.613,3.604-3.604s-1.61-3.606-3.604-3.606    c-1.991,0-3.605,1.615-3.605,3.606S179.414,230.485,181.405,230.485"/>
		<path fill="#0047ff" d="M202.642,230.485c1.993,0,3.606-1.613,3.606-3.604s-1.613-3.606-3.606-3.606    c-1.992,0-3.604,1.615-3.604,3.606S200.649,230.485,202.642,230.485"/>
		<path fill="#0047ff" d="M223.879,230.485c1.993,0,3.605-1.613,3.605-3.604s-1.612-3.606-3.605-3.606    c-1.991,0-3.605,1.615-3.605,3.606S221.888,230.485,223.879,230.485"/>
		<path fill="#0047ff" d="M245.117,230.485c1.991,0,3.604-1.613,3.604-3.604s-1.613-3.606-3.604-3.606    c-1.99,0-3.605,1.615-3.605,3.606S243.127,230.485,245.117,230.485"/>
		<path fill="#0047ff" d="M266.353,230.485c1.991,0,3.607-1.613,3.607-3.604s-1.616-3.606-3.607-3.606s-3.603,1.615-3.603,3.606    S264.361,230.485,266.353,230.485"/>
		<path fill="#0047ff" d="M287.591,230.485c1.991,0,3.604-1.613,3.604-3.604s-1.612-3.606-3.604-3.606    c-1.99,0-3.606,1.615-3.606,3.606S285.601,230.485,287.591,230.485"/>
		<path fill="#0047ff" d="M128.313,251.724c1.988,0,3.602-1.615,3.602-3.603c0-1.992-1.613-3.608-3.602-3.608    c-1.99,0-3.606,1.617-3.606,3.608C124.707,250.108,126.323,251.724,128.313,251.724"/>
		<path fill="#0047ff" d="M298.214,251.724c1.991,0,3.604-1.615,3.604-3.603c0-1.992-1.612-3.608-3.604-3.608    s-3.609,1.617-3.609,3.608C294.604,250.108,296.223,251.724,298.214,251.724"/>
		<path fill="#0047ff" d="M319.453,251.724c1.989,0,3.604-1.615,3.604-3.603c0-1.992-1.614-3.608-3.604-3.608    c-1.998,0-3.608,1.617-3.608,3.608C315.845,250.108,317.455,251.724,319.453,251.724"/>
		<path fill="#0047ff" d="M340.687,251.724c1.99,0,3.606-1.615,3.606-3.603c0-1.992-1.616-3.608-3.606-3.608    s-3.608,1.617-3.608,3.608C337.078,250.108,338.696,251.724,340.687,251.724"/>
		<path fill="#0047ff" d="M361.924,251.724c1.991,0,3.61-1.615,3.61-3.603c0-1.992-1.619-3.608-3.61-3.608    c-1.99,0-3.607,1.617-3.607,3.608C358.316,250.108,359.934,251.724,361.924,251.724"/>
		<path fill="#0047ff" d="M383.161,251.724c1.989,0,3.612-1.615,3.612-3.603c0-1.992-1.623-3.608-3.612-3.608    c-1.991,0-3.605,1.617-3.605,3.608C379.556,250.108,381.17,251.724,383.161,251.724"/>
		<path fill="#0047ff" d="M404.397,251.724c1.991,0,3.605-1.615,3.605-3.603c0-1.992-1.614-3.608-3.605-3.608    c-1.989,0-3.604,1.617-3.604,3.608C400.793,250.108,402.408,251.724,404.397,251.724"/>
		<path fill="#0047ff" d="M425.636,251.724c1.996,0,3.61-1.615,3.61-3.603c0-1.992-1.614-3.608-3.61-3.608    c-1.989,0-3.606,1.617-3.606,3.608C422.029,250.108,423.646,251.724,425.636,251.724"/>
		<path fill="#0047ff" d="M446.872,251.724c1.993,0,3.605-1.615,3.605-3.603c0-1.992-1.612-3.608-3.605-3.608    c-1.988,0-3.604,1.617-3.604,3.608C443.268,250.108,444.884,251.724,446.872,251.724"/>
		<path fill="#0047ff" d="M149.553,251.724c1.988,0,3.604-1.615,3.604-3.603c0-1.992-1.616-3.608-3.604-3.608    c-1.991,0-3.607,1.617-3.607,3.608C145.945,250.108,147.562,251.724,149.553,251.724"/>
		<path fill="#0047ff" d="M170.786,251.724c1.992,0,3.603-1.615,3.603-3.603c0-1.992-1.61-3.608-3.603-3.608    c-1.99,0-3.605,1.617-3.605,3.608C167.181,250.108,168.796,251.724,170.786,251.724"/>
		<path fill="#0047ff" d="M192.024,251.724c1.993,0,3.604-1.615,3.604-3.603c0-1.992-1.611-3.608-3.604-3.608    c-1.991,0-3.606,1.617-3.606,3.608C188.418,250.108,190.033,251.724,192.024,251.724"/>
		<path fill="#0047ff" d="M213.259,251.724c1.995,0,3.609-1.615,3.609-3.603c0-1.992-1.614-3.608-3.609-3.608    c-1.989,0-3.603,1.617-3.603,3.608C209.656,250.108,211.27,251.724,213.259,251.724"/>
		<path fill="#0047ff" d="M234.498,251.724c1.99,0,3.604-1.615,3.604-3.603c0-1.992-1.614-3.608-3.604-3.608    s-3.605,1.617-3.605,3.608C230.893,250.108,232.508,251.724,234.498,251.724"/>
		<path fill="#0047ff" d="M255.735,251.724c1.99,0,3.604-1.615,3.604-3.603c0-1.992-1.614-3.608-3.604-3.608    c-1.989,0-3.603,1.617-3.603,3.608C252.133,250.108,253.746,251.724,255.735,251.724"/>
		<path fill="#0047ff" d="M276.972,251.724c1.989,0,3.603-1.615,3.603-3.603c0-1.992-1.613-3.608-3.603-3.608    c-1.99,0-3.603,1.617-3.603,3.608C273.369,250.108,274.981,251.724,276.972,251.724"/>
		<path fill="#0047ff" d="M138.934,272.96c1.987,0,3.601-1.615,3.601-3.605c0-1.992-1.613-3.607-3.601-3.607    c-1.991,0-3.607,1.615-3.607,3.607C135.326,271.346,136.942,272.96,138.934,272.96"/>
		<path fill="#0047ff" d="M308.833,272.96c1.99,0,3.606-1.615,3.606-3.605c0-1.992-1.616-3.607-3.606-3.607    c-1.991,0-3.61,1.615-3.61,3.607C305.223,271.346,306.842,272.96,308.833,272.96"/>
		<path fill="#0047ff" d="M330.068,272.96c1.99,0,3.606-1.615,3.606-3.605c0-1.992-1.616-3.607-3.606-3.607    c-1.994,0-3.604,1.615-3.604,3.607C326.465,271.346,328.074,272.96,330.068,272.96"/>
		<path fill="#0047ff" d="M351.305,272.96c1.99,0,3.606-1.615,3.606-3.605c0-1.992-1.616-3.607-3.606-3.607    s-3.603,1.615-3.603,3.607C347.702,271.346,349.314,272.96,351.305,272.96"/>
		<path fill="#0047ff" d="M372.542,272.96c1.992,0,3.611-1.615,3.611-3.605c0-1.992-1.619-3.607-3.611-3.607    c-1.991,0-3.606,1.615-3.606,3.607C368.936,271.346,370.551,272.96,372.542,272.96"/>
		<path fill="#0047ff" d="M393.777,272.96c1.992,0,3.611-1.615,3.611-3.605c0-1.992-1.619-3.607-3.611-3.607    c-1.99,0-3.603,1.615-3.603,3.607C390.175,271.346,391.787,272.96,393.777,272.96"/>
		<path fill="#0047ff" d="M415.019,272.96c1.99,0,3.603-1.615,3.603-3.605c0-1.992-1.612-3.607-3.603-3.607s-3.61,1.615-3.61,3.607    C411.408,271.346,413.028,272.96,415.019,272.96"/>
		<path fill="#0047ff" d="M436.252,272.96c2,0,3.614-1.615,3.614-3.605c0-1.992-1.614-3.607-3.614-3.607    c-1.986,0-3.604,1.615-3.604,3.607C432.647,271.346,434.266,272.96,436.252,272.96"/>
		<path fill="#0047ff" d="M160.17,272.96c1.991,0,3.608-1.615,3.608-3.605c0-1.992-1.617-3.607-3.608-3.607    c-1.994,0-3.607,1.615-3.607,3.607C156.562,271.346,158.176,272.96,160.17,272.96"/>
		<path fill="#0047ff" d="M181.405,272.96c1.993,0,3.604-1.615,3.604-3.605c0-1.992-1.61-3.607-3.604-3.607    c-1.991,0-3.605,1.615-3.605,3.607C177.8,271.346,179.414,272.96,181.405,272.96"/>
		<path fill="#0047ff" d="M202.642,272.96c1.993,0,3.606-1.615,3.606-3.605c0-1.992-1.613-3.607-3.606-3.607    c-1.992,0-3.604,1.615-3.604,3.607C199.038,271.346,200.649,272.96,202.642,272.96"/>
		<path fill="#0047ff" d="M223.879,272.96c1.993,0,3.605-1.615,3.605-3.605c0-1.992-1.612-3.607-3.605-3.607    c-1.991,0-3.605,1.615-3.605,3.607C220.273,271.346,221.888,272.96,223.879,272.96"/>
		<path fill="#0047ff" d="M245.117,272.96c1.991,0,3.604-1.615,3.604-3.605c0-1.992-1.613-3.607-3.604-3.607    c-1.99,0-3.605,1.615-3.605,3.607C241.512,271.346,243.127,272.96,245.117,272.96"/>
		<path fill="#0047ff" d="M266.353,272.96c1.991,0,3.607-1.615,3.607-3.605c0-1.992-1.616-3.607-3.607-3.607    s-3.603,1.615-3.603,3.607C262.75,271.346,264.361,272.96,266.353,272.96"/>
		<path fill="#0047ff" d="M128.313,294.209c1.988,0,3.602-1.613,3.602-3.605c0-1.998-1.613-3.615-3.602-3.615    c-1.99,0-3.606,1.617-3.606,3.615C124.707,292.596,126.323,294.209,128.313,294.209"/>
		<path fill="#0047ff" d="M319.453,294.209c1.989,0,3.604-1.613,3.604-3.605c0-1.998-1.614-3.615-3.604-3.615    c-1.998,0-3.608,1.617-3.608,3.615C315.845,292.596,317.455,294.209,319.453,294.209"/>
		<path fill="#0047ff" d="M340.687,294.209c1.99,0,3.606-1.613,3.606-3.605c0-1.998-1.616-3.615-3.606-3.615    s-3.608,1.617-3.608,3.615C337.078,292.596,338.696,294.209,340.687,294.209"/>
		<path fill="#0047ff" d="M361.924,294.209c1.991,0,3.61-1.613,3.61-3.605c0-1.998-1.619-3.615-3.61-3.615    c-1.99,0-3.607,1.617-3.607,3.615C358.316,292.596,359.934,294.209,361.924,294.209"/>
		<path fill="#0047ff" d="M383.161,294.209c1.989,0,3.612-1.613,3.612-3.605c0-1.998-1.623-3.615-3.612-3.615    c-1.991,0-3.605,1.617-3.605,3.615C379.556,292.596,381.17,294.209,383.161,294.209"/>
		<path fill="#0047ff" d="M404.397,294.209c1.991,0,3.605-1.613,3.605-3.605c0-1.998-1.614-3.615-3.605-3.615    c-1.989,0-3.604,1.617-3.604,3.615C400.793,292.596,402.408,294.209,404.397,294.209"/>
		<path fill="#0047ff" d="M425.636,294.209c1.996,0,3.61-1.613,3.61-3.605c0-1.998-1.614-3.615-3.61-3.615    c-1.989,0-3.606,1.617-3.606,3.615C422.029,292.596,423.646,294.209,425.636,294.209"/>
		<path fill="#0047ff" d="M446.872,294.209c1.993,0,3.605-1.613,3.605-3.605c0-1.998-1.612-3.615-3.605-3.615    c-1.988,0-3.604,1.617-3.604,3.615C443.268,292.596,444.884,294.209,446.872,294.209"/>
		<path fill="#0047ff" d="M149.553,294.209c1.988,0,3.604-1.613,3.604-3.605c0-1.998-1.616-3.615-3.604-3.615    c-1.991,0-3.607,1.617-3.607,3.615C145.945,292.596,147.562,294.209,149.553,294.209"/>
		<path fill="#0047ff" d="M170.786,294.209c1.992,0,3.603-1.613,3.603-3.605c0-1.998-1.61-3.615-3.603-3.615    c-1.99,0-3.605,1.617-3.605,3.615C167.181,292.596,168.796,294.209,170.786,294.209"/>
		<path fill="#0047ff" d="M192.024,294.209c1.993,0,3.604-1.613,3.604-3.605c0-1.998-1.611-3.615-3.604-3.615    c-1.991,0-3.606,1.617-3.606,3.615C188.418,292.596,190.033,294.209,192.024,294.209"/>
		<path fill="#0047ff" d="M213.259,294.209c1.995,0,3.609-1.613,3.609-3.605c0-1.998-1.614-3.615-3.609-3.615    c-1.989,0-3.603,1.617-3.603,3.615C209.656,292.596,211.27,294.209,213.259,294.209"/>
		<path fill="#0047ff" d="M234.498,294.209c1.99,0,3.604-1.613,3.604-3.605c0-1.998-1.614-3.615-3.604-3.615    s-3.605,1.617-3.605,3.615C230.893,292.596,232.508,294.209,234.498,294.209"/>
		<path fill="#0047ff" d="M255.735,294.209c1.99,0,3.604-1.613,3.604-3.605c0-1.998-1.614-3.615-3.604-3.615    c-1.989,0-3.603,1.617-3.603,3.615C252.133,292.596,253.746,294.209,255.735,294.209"/>
		<path fill="#0047ff" d="M138.934,315.446c1.987,0,3.601-1.615,3.601-3.605c0-1.992-1.613-3.606-3.601-3.606    c-1.991,0-3.607,1.614-3.607,3.606C135.326,313.831,136.942,315.446,138.934,315.446"/>
		<path fill="#0047ff" d="M372.542,315.446c1.992,0,3.611-1.615,3.611-3.605c0-1.992-1.619-3.606-3.611-3.606    c-1.991,0-3.606,1.614-3.606,3.606C368.936,313.831,370.551,315.446,372.542,315.446"/>
		<path fill="#0047ff" d="M393.777,315.446c1.992,0,3.611-1.615,3.611-3.605c0-1.992-1.619-3.606-3.611-3.606    c-1.99,0-3.603,1.614-3.603,3.606C390.175,313.831,391.787,315.446,393.777,315.446"/>
		<path fill="#0047ff" d="M415.019,315.446c1.99,0,3.603-1.615,3.603-3.605c0-1.992-1.612-3.606-3.603-3.606s-3.61,1.614-3.61,3.606    C411.408,313.831,413.028,315.446,415.019,315.446"/>
		<path fill="#0047ff" d="M436.252,315.446c2,0,3.614-1.615,3.614-3.605c0-1.992-1.614-3.606-3.614-3.606    c-1.986,0-3.604,1.614-3.604,3.606C432.647,313.831,434.266,315.446,436.252,315.446"/>
		<path fill="#0047ff" d="M160.17,315.446c1.991,0,3.608-1.615,3.608-3.605c0-1.992-1.617-3.606-3.608-3.606    c-1.994,0-3.607,1.614-3.607,3.606C156.562,313.831,158.176,315.446,160.17,315.446"/>
		<path fill="#0047ff" d="M181.405,315.446c1.993,0,3.604-1.615,3.604-3.605c0-1.992-1.61-3.606-3.604-3.606    c-1.991,0-3.605,1.614-3.605,3.606C177.8,313.831,179.414,315.446,181.405,315.446"/>
		<path fill="#0047ff" d="M202.642,315.446c1.993,0,3.606-1.615,3.606-3.605c0-1.992-1.613-3.606-3.606-3.606    c-1.992,0-3.604,1.614-3.604,3.606C199.038,313.831,200.649,315.446,202.642,315.446"/>
		<path fill="#0047ff" d="M128.313,336.686c1.988,0,3.602-1.613,3.602-3.604c0-1.995-1.613-3.611-3.602-3.611    c-1.99,0-3.606,1.617-3.606,3.611C124.707,335.073,126.323,336.686,128.313,336.686"/>
		<path fill="#0047ff" d="M404.397,336.686c1.991,0,3.605-1.613,3.605-3.604c0-1.995-1.614-3.611-3.605-3.611    c-1.989,0-3.604,1.617-3.604,3.611C400.793,335.073,402.408,336.686,404.397,336.686"/>
		<path fill="#0047ff" d="M425.636,336.686c1.996,0,3.61-1.613,3.61-3.604c0-1.995-1.614-3.611-3.61-3.611    c-1.989,0-3.606,1.617-3.606,3.611C422.029,335.073,423.646,336.686,425.636,336.686"/>
		<path fill="#0047ff" d="M446.872,336.686c1.993,0,3.605-1.613,3.605-3.604c0-1.995-1.612-3.611-3.605-3.611    c-1.988,0-3.604,1.617-3.604,3.611C443.268,335.073,444.884,336.686,446.872,336.686"/>
		<path fill="#0047ff" d="M149.553,336.686c1.988,0,3.604-1.613,3.604-3.604c0-1.995-1.616-3.611-3.604-3.611    c-1.991,0-3.607,1.617-3.607,3.611C145.945,335.073,147.562,336.686,149.553,336.686"/>
		<path fill="#0047ff" d="M170.786,336.686c1.992,0,3.603-1.613,3.603-3.604c0-1.995-1.61-3.611-3.603-3.611    c-1.99,0-3.605,1.617-3.605,3.611C167.181,335.073,168.796,336.686,170.786,336.686"/>
		<path fill="#0047ff" d="M138.934,357.921c1.987,0,3.601-1.609,3.601-3.603c0-1.994-1.613-3.609-3.601-3.609    c-1.991,0-3.607,1.615-3.607,3.609C135.326,356.312,136.942,357.921,138.934,357.921"/>
		<path fill="#0047ff" d="M436.252,357.921c2,0,3.614-1.609,3.614-3.603c0-1.994-1.614-3.609-3.614-3.609    c-1.986,0-3.604,1.615-3.604,3.609C432.647,356.312,434.266,357.921,436.252,357.921"/>
		<path fill="#0047ff" d="M128.313,379.16c1.988,0,3.602-1.615,3.602-3.601c0-1.995-1.613-3.609-3.602-3.609    c-1.99,0-3.606,1.614-3.606,3.609C124.707,377.544,126.323,379.16,128.313,379.16"/>
		<path fill="#0047ff" d="M446.872,379.16c1.993,0,3.605-1.615,3.605-3.601c0-1.995-1.612-3.609-3.605-3.609    c-1.988,0-3.604,1.614-3.604,3.609C443.268,377.544,444.884,379.16,446.872,379.16"/>
	</g>
	<path fill="#0047ff" d="M413.991,349.93c-30.466-30.465-76.459-49.781-121.145-51.199v-25.185c0-2.938-2.377-5.307-5.31-5.307   c-2.935,0-5.31,2.37-5.31,5.307v25.185c-44.979,1.417-91.002,20.57-121.219,50.788c-22.866,22.871-34.954,50.264-34.949,79.212   c0,2.931,2.372,5.307,5.306,5.307c2.936,0,5.312-2.375,5.312-5.307c0-14.287,11.625-25.913,25.909-25.913   c14.288,0,25.916,11.626,25.916,25.913c0,2.931,2.372,5.307,5.309,5.307c2.928,0,5.308-2.375,5.308-5.307   c0-14.287,11.622-25.913,25.911-25.913c14.29,0,25.913,11.626,25.913,25.91c0,2.935,2.375,5.31,5.311,5.31   c2.932,0,5.307-2.375,5.307-5.31c0-12.488,8.887-22.945,20.668-25.376v205.644c0,18.11,14.735,32.852,32.844,32.852   c18.112,0,32.842-14.741,32.842-32.852c0-6.894-2.114-13.498-6.118-19.093c-1.703-2.386-5.017-2.933-7.398-1.229   c-2.391,1.706-2.94,5.019-1.232,7.408c2.705,3.777,4.135,8.25,4.135,12.914c0,12.254-9.972,22.23-22.228,22.23   c-12.251,0-22.225-9.977-22.225-22.23V403.395c11.714,2.479,20.539,12.891,20.539,25.333c0,2.935,2.375,5.31,5.311,5.31   c2.925,0,5.307-2.375,5.307-5.31c0-14.287,11.624-25.916,25.914-25.916c14.284,0,25.917,11.628,25.917,25.916   c0,2.935,2.367,5.31,5.305,5.31c2.93,0,5.306-2.375,5.306-5.31c0-14.287,11.629-25.916,25.91-25.916   c14.419,0,26.152,11.628,26.152,25.916c0,2.935,2.374,5.31,5.311,5.31c2.925,0,5.308-2.375,5.308-5.31   C449.125,400.159,436.98,372.909,413.991,349.93"/>
	<path fill="#FFFFFF" d="M240.244,345.274l-0.003-7.166c0-1.878-1.523-3.4-3.401-3.4h-7.649c-1.878,0-3.401,1.523-3.401,3.401   s1.523,3.401,3.401,3.401h4.249l0.002,3.765c0,2.99-2.431,5.422-5.419,5.422c-2.99,0-5.422-2.432-5.422-5.422v-14.332   c0-2.988,2.432-5.419,5.422-5.419c2.32,0,4.382,1.474,5.13,3.667c0.608,1.778,2.542,2.727,4.318,2.12   c1.778-0.607,2.727-2.541,2.12-4.318c-1.689-4.948-6.338-8.272-11.569-8.272c-6.741,0-12.225,5.482-12.225,12.222v14.332   c0,6.741,5.484,12.225,12.225,12.225C234.761,357.5,240.244,352.017,240.244,345.274z"/>
	<path fill="#FFFFFF" d="M258.186,318.722c-6.74,0-12.223,5.482-12.223,12.222v22.233c0,1.878,1.523,3.401,3.401,3.401   s3.401-1.523,3.401-3.401v-9.581h10.841v9.581c0,1.878,1.523,3.401,3.401,3.401s3.401-1.523,3.401-3.401v-22.233   C270.41,324.205,264.926,318.722,258.186,318.722z M252.766,336.794v-5.85c0-2.988,2.432-5.419,5.42-5.419s5.421,2.431,5.421,5.419   v5.85H252.766z"/>
	<path fill="#FFFFFF" d="M338.02,356.579c1.879,0,3.401-1.523,3.401-3.401v-9.581h10.842v9.581c0,1.878,1.522,3.401,3.401,3.401   s3.401-1.523,3.401-3.401v-22.233c0-6.739-5.483-12.222-12.224-12.222s-12.224,5.482-12.224,12.222v22.233   C334.618,355.056,336.141,356.579,338.02,356.579z M346.842,325.525c2.989,0,5.421,2.431,5.421,5.419v5.85h-10.842v-5.85   C341.421,327.956,343.853,325.525,346.842,325.525z"/>
	<path fill="#FFFFFF" d="M316.608,318.722c-6.739,0-12.222,5.482-12.222,12.222v14.332c0,6.741,5.483,12.225,12.222,12.225   c6.738,0,12.219-5.484,12.219-12.225v-14.332C328.827,324.205,323.346,318.722,316.608,318.722z M322.024,345.276   c0,2.99-2.43,5.422-5.416,5.422c-2.988,0-5.419-2.432-5.419-5.422v-14.332c0-2.988,2.431-5.419,5.419-5.419   c2.986,0,5.416,2.431,5.416,5.419V345.276z"/>
	<path fill="#FFFFFF" d="M296.167,339.465c1.834-2.11,2.916-4.866,2.916-7.854c0-6.599-5.368-11.967-11.969-11.967l-7.574,0.003   c-1.878,0-3.4,1.523-3.4,3.401v30.129c0,1.878,1.523,3.401,3.401,3.401s3.401-1.523,3.401-3.401v-26.729l4.173-0.002   c2.848,0,5.165,2.317,5.165,5.165c0,2.409-1.624,4.464-3.949,4.999c-1.629,0.374-2.745,1.877-2.632,3.544s1.421,3.006,3.085,3.158   c2.504,0.228,4.467,2.381,4.467,4.901v4.963c0,1.878,1.523,3.401,3.401,3.401s3.401-1.523,3.401-3.401v-4.963   C300.053,344.737,298.568,341.613,296.167,339.465z"/>
	<path fill="#FFFFFF" d="M177.249,363.862c-1.409,0-2.551,1.142-2.551,2.551v8.33h-7.682v-8.33c0-1.409-1.142-2.551-2.551-2.551   s-2.551,1.142-2.551,2.551v23.76c0,1.409,1.142,2.551,2.551,2.551s2.551-1.142,2.551-2.551v-10.328h7.682v10.328   c0,1.409,1.142,2.551,2.551,2.551s2.551-1.142,2.551-2.551v-23.76C179.8,365.004,178.658,363.862,177.249,363.862z"/>
	<path fill="#FFFFFF" d="M346.885,387.622h-8.863v-21.208c0-1.409-1.142-2.551-2.551-2.551s-2.551,1.142-2.551,2.551v23.76   c0,1.409,1.142,2.551,2.551,2.551h11.414c1.409,0,2.551-1.142,2.551-2.551S348.294,387.622,346.885,387.622z"/>
	<path fill="#FFFFFF" d="M223.577,376.206c1.388,0.207,2.692-0.751,2.9-2.146c0.072-0.479,0.108-0.957,0.108-1.418   c0-5.242-4.264-9.506-9.505-9.506s-9.505,4.265-9.505,9.506v11.302c0,5.243,4.264,9.508,9.505,9.508s9.505-4.265,9.505-9.508   c0-0.516-0.045-1.048-0.135-1.581c-0.233-1.389-1.548-2.323-2.938-2.094c-1.39,0.233-2.327,1.549-2.094,2.938   c0.043,0.258,0.064,0.499,0.064,0.736c0,2.429-1.975,4.405-4.403,4.405s-4.403-1.976-4.403-4.405v-11.302   c0-2.428,1.975-4.404,4.403-4.404s4.403,1.976,4.403,4.404c0,0.21-0.018,0.433-0.052,0.664   C221.223,374.699,222.183,375.998,223.577,376.206z"/>
	<path fill="#FFFFFF" d="M325.704,376.207c1.391,0.206,2.689-0.76,2.895-2.153c0.07-0.48,0.105-0.955,0.105-1.412   c0-5.242-4.263-9.506-9.503-9.506c-5.242,0-9.506,4.265-9.506,9.506v11.302c0,5.243,4.265,9.508,9.506,9.508   c5.24,0,9.503-4.265,9.503-9.508c0-0.51-0.043-1.023-0.132-1.568c-0.226-1.39-1.534-2.334-2.928-2.108   c-1.391,0.227-2.334,1.537-2.108,2.928c0.044,0.271,0.065,0.515,0.065,0.748c0,2.429-1.974,4.405-4.401,4.405   c-2.428,0-4.404-1.976-4.404-4.405v-11.302c0-2.428,1.976-4.404,4.404-4.404c2.427,0,4.401,1.976,4.401,4.404   c0,0.209-0.018,0.435-0.052,0.67C323.346,374.707,324.31,376.002,325.704,376.207z"/>
	<path fill="#FFFFFF" d="M367.769,363.862c-1.409,0-2.551,1.142-2.551,2.551v17.53c0,2.429-1.977,4.405-4.405,4.405   s-4.404-1.976-4.404-4.405v-17.53c0-1.409-1.142-2.551-2.551-2.551s-2.551,1.142-2.551,2.551v17.53   c0,5.243,4.264,9.508,9.506,9.508s9.507-4.265,9.507-9.508v-17.53C370.319,365.004,369.178,363.862,367.769,363.862z"/>
	<path fill="#FFFFFF" d="M193.822,363.136c-5.241,0-9.505,4.265-9.505,9.507v17.531c0,1.409,1.142,2.551,2.551,2.551   s2.551-1.142,2.551-2.551v-7.849h8.807v7.849c0,1.409,1.142,2.551,2.551,2.551s2.551-1.142,2.551-2.551v-17.531   C203.329,367.4,199.064,363.136,193.822,363.136z M189.419,377.222v-4.58c0-2.429,1.975-4.404,4.403-4.404   c2.428,0,4.404,1.976,4.404,4.404v4.58H189.419z"/>
	<path fill="#FFFFFF" d="M265.956,387.622h-6.023c-1.514,0-2.745-1.232-2.745-2.748v-5.312h6.782c1.409,0,2.551-1.142,2.551-2.551   s-1.142-2.551-2.551-2.551h-6.782v-2.747c0-1.515,1.231-2.748,2.745-2.748h5.371c1.409,0,2.551-1.142,2.551-2.551   s-1.142-2.551-2.551-2.551h-5.371c-4.327,0-7.847,3.521-7.847,7.85v13.162c0,4.329,3.521,7.85,7.847,7.85h6.023   c1.409,0,2.551-1.142,2.551-2.551S267.365,387.622,265.956,387.622z"/>
	<path fill="#FFFFFF" d="M410.398,387.622h-6.023c-1.515,0-2.747-1.232-2.747-2.748v-5.312h6.784c1.409,0,2.551-1.142,2.551-2.551   s-1.142-2.551-2.551-2.551h-6.784v-2.747c0-1.515,1.232-2.748,2.747-2.748h5.371c1.409,0,2.551-1.142,2.551-2.551   s-1.142-2.551-2.551-2.551h-5.371c-4.328,0-7.849,3.521-7.849,7.85v13.162c0,4.329,3.521,7.85,7.849,7.85h6.023   c1.409,0,2.551-1.142,2.551-2.551S411.808,387.622,410.398,387.622z"/>
	<path fill="#FFFFFF" d="M241.994,375.635l5.561-7.732c0.823-1.144,0.562-2.738-0.582-3.561c-1.144-0.822-2.737-0.562-3.561,0.582   l-7.054,9.809v-8.317c0-1.409-1.142-2.551-2.551-2.551s-2.551,1.142-2.551,2.551v23.757c0,1.409,1.142,2.551,2.551,2.551   s2.551-1.142,2.551-2.551v-9.894h2.733c2.427,0,4.402,1.976,4.402,4.404v5.489c0,1.409,1.142,2.551,2.551,2.551   s2.551-1.142,2.551-2.551v-5.489C248.595,380.455,245.818,376.866,241.994,375.635z"/>
	<path fill="#FFFFFF" d="M389.046,376.218c0.591-1.17,0.91-2.482,0.91-3.842c0-4.7-3.821-8.523-8.526-8.523l-3.877,0.012   c-1.406,0.004-2.543,1.146-2.543,2.551v23.757c0,1.409,1.142,2.551,2.551,2.551h6.434c4.979,0,9.028-4.051,9.028-9.029   C393.022,380.605,391.459,377.844,389.046,376.218z M383.994,387.622h-3.883v-18.663l1.326-0.004c1.884,0,3.417,1.534,3.417,3.42   c0,1.15-0.536,2.169-1.469,2.797c-0.885,0.595-1.306,1.678-1.057,2.714c0.25,1.037,1.118,1.809,2.177,1.936   c1.946,0.233,3.415,1.898,3.415,3.873C387.921,385.86,386.159,387.622,383.994,387.622z"/>
	<g>
		<g>
			<path fill="#FFFFFF" d="M287.838,392.725c-1.409,0-2.551-1.142-2.551-2.551V386.2c0-2.015-1.553-3.711-3.611-3.945     c-1.226-0.139-2.177-1.136-2.258-2.367c-0.081-1.231,0.731-2.344,1.928-2.643c1.871-0.467,3.177-2.144,3.177-4.077     c0-2.318-1.886-4.203-4.204-4.203l-3.213,0.001v21.207c0,1.409-1.142,2.551-2.551,2.551s-2.551-1.142-2.551-2.551v-23.757     c0-1.409,1.142-2.55,2.55-2.551l5.765-0.003c5.133,0,9.308,4.174,9.308,9.306c0,2.36-0.88,4.547-2.366,6.208     c1.929,1.671,3.13,4.121,3.13,6.824v3.973C290.389,391.583,289.247,392.725,287.838,392.725z"/>
		</g>
	</g>
</g>
</svg>